<?xml version="1.0" standalone="no"?><!DOCTYPE svg PUBLIC "-//W3C//DTD SVG 1.1//EN" "http://www.w3.org/Graphics/SVG/1.1/DTD/svg11.dtd"><svg viewBox="0 0 200 200" version="1.1" xmlns="http://www.w3.org/2000/svg" xmlns:xlink="http://www.w3.org/1999/xlink"><defs><style type="text/css"><![CDATA[
@font-face { font-family: ifont; src: url("//at.alicdn.com/t/font_1442373896_4754455.eot?#iefix") format("embedded-opentype"), url("//at.alicdn.com/t/font_1442373896_4754455.woff") format("woff"), url("//at.alicdn.com/t/font_1442373896_4754455.ttf") format("truetype"), url("//at.alicdn.com/t/font_1442373896_4754455.svg#ifont") format("svg"); }

]]></style></defs><g class="transform-group"><g transform="scale(0.1953125, 0.1953125)"><path d="M778.976 526.272l-328.928 0c-26.88 0-48.576-21.664-48.576-48.544s21.728-48.544 48.576-48.544l328.896 0c26.88 0 48.512 21.728 48.512 48.544 0.032 26.88-21.824 48.544-48.48 48.544l0 0 0 0zM778.976 718.56l-328.928 0c-26.88 0-48.576-21.728-48.576-48.576 0-26.88 21.728-48.512 48.576-48.512l328.896 0c26.88 0 48.512 21.728 48.512 48.512 0.032 26.848-21.824 48.576-48.48 48.576l0 0 0 0zM1002.208 877.28l0-614.304c0-74.656-68-67.616-68-67.616s-405.92 0.416-384.352 0c-23.136 0.416-34.848-12.192-34.848-12.192s-16.128-27.936-45.28-71.712c-30.368-46.112-65.76-38.688-65.76-38.688l-298.944 0c-82.848 0-83.68 79.776-83.68 79.776l0 720.8c0 88.864 67.168 77.92 67.168 77.92l851.872 0c71.904 0.032 61.856-73.984 61.856-73.984l0 0 0 0 0 0 0 0zM941.184 840.896c0 27.488-22.112 49.6-49.632 49.6l-759.648 0c-27.488 0-49.6-22.112-49.6-49.6l0-514.272c0-27.488 22.112-49.632 49.6-49.632l759.648 0c27.488 0 49.632 22.112 49.632 49.632l0 514.272zM217.696 477.728c0 28.672 23.232 51.872 51.872 51.872s51.872-23.2 51.872-51.872c0-28.64-23.232-51.872-51.872-51.872s-51.872 23.2-51.872 51.872l0 0 0 0zM217.696 669.92c0 28.704 23.232 51.936 51.872 51.936s51.872-23.232 51.872-51.936c0-28.64-23.232-51.872-51.872-51.872s-51.872 23.264-51.872 51.872l0 0 0 0z" fill="#00bb9c"></path></g></g></svg>