<?xml version="1.0" standalone="no"?><!DOCTYPE svg PUBLIC "-//W3C//DTD SVG 1.1//EN" "http://www.w3.org/Graphics/SVG/1.1/DTD/svg11.dtd"><svg viewBox="0 0 200 200" version="1.1" xmlns="http://www.w3.org/2000/svg" xmlns:xlink="http://www.w3.org/1999/xlink"><defs><style type="text/css"><![CDATA[
@font-face { font-family: ifont; src: url("//at.alicdn.com/t/font_1442373896_4754455.eot?#iefix") format("embedded-opentype"), url("//at.alicdn.com/t/font_1442373896_4754455.woff") format("woff"), url("//at.alicdn.com/t/font_1442373896_4754455.ttf") format("truetype"), url("//at.alicdn.com/t/font_1442373896_4754455.svg#ifont") format("svg"); }

]]></style></defs><g class="transform-group"><g transform="scale(0.1953125, 0.1953125)"><path d="M512 932.977778C279.483733 932.977778 91.022222 744.493511 91.022222 512.022756 91.022222 279.506489 279.483733 91.022222 512 91.022222 744.493511 91.022222 932.977778 279.506489 932.977778 512.022756 932.977778 744.493511 744.493511 932.977778 512 932.977778zM512 136.533333C304.651378 136.533333 136.533333 304.651378 136.533333 512 136.533333 719.371378 304.651378 887.466667 512 887.466667 719.371378 887.466667 887.466667 719.371378 887.466667 512 887.466667 304.651378 719.371378 136.533333 512 136.533333zM728.177778 546.133333 500.622222 546.133333c-12.583822 0-22.755556-10.171733-22.755556-22.755556L477.866667 273.066667c0-12.583822 10.171733-22.755556 22.755556-22.755556s22.755556 10.171733 22.755556 22.755556l0 227.555556 204.8 0c12.583822 0 22.755556 10.171733 22.755556 22.755556S740.7616 546.133333 728.177778 546.133333z" fill="#9d55b8"></path></g></g></svg>