<?xml version="1.0" standalone="no"?><!DOCTYPE svg PUBLIC "-//W3C//DTD SVG 1.1//EN" "http://www.w3.org/Graphics/SVG/1.1/DTD/svg11.dtd"><svg viewBox="0 0 200 200" version="1.1" xmlns="http://www.w3.org/2000/svg" xmlns:xlink="http://www.w3.org/1999/xlink"><defs><style type="text/css"><![CDATA[
@font-face { font-family: ifont; src: url("//at.alicdn.com/t/font_1442373896_4754455.eot?#iefix") format("embedded-opentype"), url("//at.alicdn.com/t/font_1442373896_4754455.woff") format("woff"), url("//at.alicdn.com/t/font_1442373896_4754455.ttf") format("truetype"), url("//at.alicdn.com/t/font_1442373896_4754455.svg#ifont") format("svg"); }

]]></style></defs><g class="transform-group"><g transform="scale(0.1953125, 0.1953125)"><path d="M132.928 639.84C62.368 639.84 0 582.432 0 511.936s62.368-127.776 132.928-127.776S256 441.472 256 511.936 203.52 639.84 132.928 639.84zM128 415.936c-58.56 0-96 37.504-96 96 0 58.496 37.44 96 96 96s96-37.504 96-96C224 453.44 186.56 415.936 128 415.936zM516.928 639.84c-70.592 0-132.928-57.408-132.928-127.904s62.368-127.776 132.928-127.776c70.592 0 123.072 57.312 123.072 127.776S587.52 639.84 516.928 639.84zM512 415.936c-58.56 0-96 37.504-96 96 0 58.496 37.44 96 96 96s96-37.504 96-96C608 453.44 570.56 415.936 512 415.936zM900.928 639.84c-70.592 0-132.928-57.408-132.928-127.904s62.368-127.776 132.928-127.776S1024 441.472 1024 511.936 971.52 639.84 900.928 639.84zM896 415.936c-58.56 0-96 37.504-96 96 0 58.496 37.44 96 96 96s96-37.504 96-96C992 453.44 954.56 415.936 896 415.936z" fill="#56abe4"></path></g></g></svg>