<?xml version="1.0" standalone="no"?><!DOCTYPE svg PUBLIC "-//W3C//DTD SVG 1.1//EN" "http://www.w3.org/Graphics/SVG/1.1/DTD/svg11.dtd"><svg viewBox="0 0 200 200" version="1.1" xmlns="http://www.w3.org/2000/svg" xmlns:xlink="http://www.w3.org/1999/xlink"><defs><style type="text/css"><![CDATA[

]]></style></defs><g class="transform-group"><g transform="scale(0.1953125, 0.1953125)"><path d="M512.516258 64.126506c-246.99951 0-447.953312 200.932312-447.953312 447.953312 0 246.975974 200.953801 447.909309 447.953312 447.909309s447.951265-200.933335 447.951265-447.909309C960.467523 265.059841 759.515768 64.126506 512.516258 64.126506zM512.516258 905.757992c-217.09748 0-393.679198-176.624696-393.679198-393.678174 0-217.098503 176.581718-393.722176 393.679198-393.722176 217.095433 0 393.678174 176.623673 393.678174 393.722176C906.194432 729.134319 729.611691 905.757992 512.516258 905.757992zM632.025119 509.34452c16.672728 0 30.156834-13.504572 30.156834-30.133298 0-16.670681-13.484106-30.176276-30.156834-30.176276l-63.620993 0 60.413951-82.001619c11.776208-11.773138 11.776208-30.850635 0-42.624796-11.773138-11.775184-30.849612-11.775184-42.62582 0l-74.699306 96.310509-74.701352-96.310509c-11.775184-11.775184-30.851659-11.775184-42.62582 0-11.774161 11.774161-11.774161 30.851659 0 42.624796l60.413951 82.001619L390.957715 449.034946c-16.670681 0-30.133298 13.506619-30.133298 30.176276 0 16.628726 13.462616 30.133298 30.133298 30.133298l90.400916 0 0 60.225663L390.957715 569.570183c-16.670681 0-30.133298 13.503549-30.133298 30.175253 0 16.627702 13.462616 30.133298 30.133298 30.133298l90.400916 0 0 80.356143c0 16.669658 13.484106 30.175253 30.134321 30.175253 16.627702 0 30.133298-13.505595 30.133298-30.175253l0-80.356143 90.39887 0c16.672728 0 30.156834-13.505595 30.156834-30.133298 0-16.671705-13.484106-30.175253-30.156834-30.175253l-90.39887 0 0-60.225663L632.025119 509.34452z" fill="#eb4f38"></path></g></g></svg>