<?xml version="1.0" standalone="no"?><!DOCTYPE svg PUBLIC "-//W3C//DTD SVG 1.1//EN" "http://www.w3.org/Graphics/SVG/1.1/DTD/svg11.dtd"><svg viewBox="0 0 200 200" version="1.1" xmlns="http://www.w3.org/2000/svg" xmlns:xlink="http://www.w3.org/1999/xlink"><defs><style type="text/css"><![CDATA[

]]></style></defs><g class="transform-group"><g transform="scale(0.1953125, 0.1953125)"><path d="M852.288 709.739c10.111 0 18.314-7.639 18.314-17.079 0-9.473-8.204-17.116-18.314-17.116h-65.846l55.582-61.015c4.814-5.281 2.846-14.684-4.384-20.937-7.264-6.255-17.042-7.077-21.855-1.798l-56.819 62.365-56.8-62.365c-4.831-5.279-14.605-4.455-21.834 1.798-7.25 6.254-9.217 15.655-4.385 20.937l55.548 61.015h-50.117c-10.112 0-18.316 7.643-18.316 17.116 0 9.44 8.205 17.079 18.316 17.079h60.603v34.196h-60.603c-10.112 0-18.316 7.679-18.316 17.119 0 9.438 8.205 17.116 18.316 17.116h60.603v46.82c0 7.977 7.865 14.458 17.53 14.458 9.699 0 17.548-6.481 17.548-14.458v-46.82h75.23c10.111 0 18.314-7.679 18.314-17.116 0-9.439-8.204-17.119-18.314-17.119h-75.23v-34.196h75.23zM263.979 333.908c0-112.327 93.711-203.718 208.923-203.718 115.214 0 208.924 91.39 208.924 203.718 0 35.133-9.174 68.204-25.262 97.084 14.251-5.244 29.027-9.476 44.217-12.586 10.26-26.257 16.103-54.686 16.103-84.498 0-131.391-109.218-237.915-243.981-237.915-134.763 0-244.019 106.523-244.019 237.915 0 96.297 58.767 178.997 143.116 216.453-177.2 43.073-314.097 190.796-337.45 371.139h34.589c27.57-195.923 200.611-349.677 408.523-349.677 0.243 0 0.469 0 0.693 0v-0.225c5.675-0.113 11.236-0.71 16.817-1.199 7.136-13.298 15.244-25.995 24.292-38.018-14.983 3.334-30.526 5.282-46.558 5.282-115.213 0-208.924-91.428-208.924-203.756zM760.222 886.677c-105.809 0-191.883-83.936-191.883-187.127 0-103.15 86.074-187.087 191.883-187.087 105.773 0 191.843 83.936 191.843 187.087 0 103.189-86.070 187.127-191.843 187.127zM760.222 478.266c-125.364 0-226.976 99.070-226.976 221.285 0 122.218 101.614 221.324 226.976 221.324 125.324 0 226.94-99.106 226.94-221.324 0-122.214-101.616-221.285-226.94-221.285z" fill="#ea8010"></path></g></g></svg>